<?xml version="1.0" encoding="UTF-8" standalone="no"?>
<!-- Created with Inkscape (http://www.inkscape.org/) -->

<svg
   width="26.639456mm"
   height="26.636332mm"
   viewBox="0 0 26.639456 26.636332"
   version="1.1"
   id="svg2397"
   inkscape:version="1.1.2 (0a00cf5339, 2022-02-04)"
   sodipodi:docname="circle.svg"
   xmlns:inkscape="http://www.inkscape.org/namespaces/inkscape"
   xmlns:sodipodi="http://sodipodi.sourceforge.net/DTD/sodipodi-0.dtd"
   xmlns="http://www.w3.org/2000/svg"
   xmlns:svg="http://www.w3.org/2000/svg">
  <sodipodi:namedview
     id="namedview2399"
     pagecolor="#ffffff"
     bordercolor="#666666"
     borderopacity="1.0"
     inkscape:pageshadow="2"
     inkscape:pageopacity="0.0"
     inkscape:pagecheckerboard="0"
     inkscape:document-units="mm"
     showgrid="false"
     fit-margin-top="0"
     fit-margin-left="0"
     fit-margin-right="0"
     fit-margin-bottom="0"
     inkscape:zoom="0.56123737"
     inkscape:cx="-96.215973"
     inkscape:cy="292.21147"
     inkscape:window-width="1920"
     inkscape:window-height="1044"
     inkscape:window-x="1920"
     inkscape:window-y="0"
     inkscape:window-maximized="1"
     inkscape:current-layer="layer1" />
  <defs
     id="defs2394" />
  <g
     inkscape:label="Layer 1"
     inkscape:groupmode="layer"
     id="layer1"
     transform="translate(-66.3517,-71.067548)">
    <path
       id="path2139"
       style="fill:#ffffff;fill-opacity:1;stroke-width:0.264583"
       d="m 74.209389,97.629335 c -0.26193,-0.0373 -0.63103,-0.10519 -0.820204,-0.15089 -0.426143,-0.10292 -1.330336,-0.43934 -1.613958,-0.60042 -0.116417,-0.0662 -0.271198,-0.14933 -0.343959,-0.18481 -0.344953,-0.16833 -1.20615,-0.87786 -1.852083,-1.52596 -2.137108,-2.14415 -3.229213,-4.72159 -3.227483,-7.61701 0.0019,-2.89453 1.02988,-5.68279 3.089953,-8.37968 0.430805,-0.56402 0.652669,-0.81616 1.460447,-1.66001 2.056363,-2.14814 5.216737,-4.01325 8.043337,-4.74688 0.10186,-0.0264 0.31617,-0.0837 0.47625,-0.12744 0.16007,-0.0436 0.4101,-0.0942 0.55562,-0.11245 0.14552,-0.0182 0.33602,-0.0553 0.42333,-0.0825 0.25367,-0.0789 1.84904,-0.20966 2.51355,-0.206 0.33469,0.002 0.89727,0.0325 1.25016,0.0681 l 0.64163,0.0647 -0.26075,-0.41645 c -0.42345,-0.67637 -0.45501,-0.88681 -0.13258,-0.88406 0.29639,0.002 1.15768,0.43615 1.70299,0.85747 0.34478,0.26633 1.04502,0.86473 1.18778,1.01495 0.1003,0.10557 0.20746,0.19239 0.23813,0.19292 0.0815,0.001 0.7392,0.31151 1.16701,0.55019 0.59724,0.33318 1.19202,0.7867 1.61566,1.23181 0.66476,0.69851 0.72745,1.02215 0.28402,1.46604 l -0.24076,0.24101 0.13967,0.22809 c 0.0768,0.12548 0.21285,0.34732 0.3023,0.49298 0.31509,0.51312 0.93046,1.75552 1.19372,2.41012 0.71736,1.78359 0.98685,3.12007 0.98798,4.89969 7.9e-4,1.08354 -0.0602,1.55487 -0.31479,2.4366 -0.5161,1.78736 -1.49851,3.20856 -3.14759,4.55347 -0.24739,0.20177 -0.55695,0.45463 -0.68792,0.56189 -0.65424,0.53597 -2.41962,1.70056 -3.57187,2.35641 -0.8969,0.51049 -2.79305,1.41907 -3.81,1.8257 -0.64681,0.25861 -1.90821,0.68273 -2.38125,0.80066 -0.88048,0.21944 -1.08308,0.25874 -2.00327,0.38878 -1.05903,0.14959 -2.05681,0.16804 -2.86507,0.0529 z m 3.14855,-5.55545 c 0.94563,-0.14311 2.83833,-0.68186 3.73062,-1.06193 0.11642,-0.0496 0.31882,-0.12669 0.44979,-0.17129 0.13097,-0.0447 0.33338,-0.1238 0.44979,-0.17593 0.11642,-0.0521 0.36645,-0.15901 0.55563,-0.23757 0.36526,-0.15157 1.89356,-0.89942 2.24896,-1.10042 0.69032,-0.39045 0.90041,-0.51435 1.40229,-0.82702 0.30559,-0.19038 0.57944,-0.36549 0.60854,-0.38917 0.0291,-0.0237 0.25532,-0.19493 0.50271,-0.38059 0.72064,-0.54071 1.14649,-1.05738 1.48196,-1.79794 0.71545,-1.5795 0.60472,-3.98406 -0.30275,-6.57459 -0.23309,-0.66535 -0.10931,-0.58277 -1.15275,-0.76906 -0.34925,-0.0623 -0.84931,-0.15732 -1.11125,-0.21108 -0.8703,-0.17851 -1.55203,-0.22968 -2.63006,-0.19737 -0.64016,0.0192 -1.1594,0.0623 -1.39161,0.11547 -0.20373,0.0467 -0.50138,0.10923 -0.66146,0.13905 -0.32321,0.0601 -0.36853,0.0731 -1.17574,0.33683 -0.77729,0.25394 -1.4372,0.54697 -2.13155,0.94657 -2.71814,1.57856 -5.169994,4.14511 -5.772324,7.12054 -0.117464,0.62499 -0.07941,1.73523 0.07761,2.26396 0.241792,0.81421 0.738198,1.61028 1.480524,2.37443 0.46559,0.47926 0.69265,0.58695 1.46253,0.69379 0.27475,0.0382 1.35497,-0.0175 1.87854,-0.0967 z" />
  </g>
</svg>
