<?xml version="1.0" encoding="UTF-8" standalone="no"?>
<!-- Created with Inkscape (http://www.inkscape.org/) -->

<svg
   width="34.999035mm"
   height="23.453623mm"
   viewBox="0 0 34.999035 23.453623"
   version="1.1"
   id="svg1388"
   inkscape:version="1.1.2 (0a00cf5339, 2022-02-04)"
   sodipodi:docname="cross.svg"
   xmlns:inkscape="http://www.inkscape.org/namespaces/inkscape"
   xmlns:sodipodi="http://sodipodi.sourceforge.net/DTD/sodipodi-0.dtd"
   xmlns="http://www.w3.org/2000/svg"
   xmlns:svg="http://www.w3.org/2000/svg">
  <sodipodi:namedview
     id="namedview1390"
     pagecolor="#ffffff"
     bordercolor="#666666"
     borderopacity="1.0"
     inkscape:pageshadow="2"
     inkscape:pageopacity="0.0"
     inkscape:pagecheckerboard="0"
     inkscape:document-units="mm"
     showgrid="false"
     inkscape:zoom="0.56123737"
     inkscape:cx="-62.362205"
     inkscape:cy="333.19235"
     inkscape:window-width="1920"
     inkscape:window-height="1000"
     inkscape:window-x="0"
     inkscape:window-y="0"
     inkscape:window-maximized="1"
     inkscape:current-layer="layer1"
     fit-margin-top="0"
     fit-margin-left="0"
     fit-margin-right="0"
     fit-margin-bottom="0" />
  <defs
     id="defs1385" />
  <g
     inkscape:label="Layer 1"
     inkscape:groupmode="layer"
     id="layer1"
     transform="translate(-57.457625,-107.54462)">
    <path
       style="fill:#ffffff;fill-opacity:1;stroke-width:0.264583"
       d="m 83.390025,130.94703 c -0.117533,-0.0471 -0.524108,-0.36284 -0.778944,-0.60492 -0.659098,-0.6262 -1.290791,-1.17756 -1.793848,-1.56578 -0.203728,-0.15726 -0.382322,-0.29896 -0.396874,-0.3149 -0.05569,-0.061 -0.490644,-0.38938 -0.91113,-0.68781 -0.241035,-0.17109 -0.468985,-0.33837 -0.50655,-0.3718 -0.08188,-0.0728 -4.237773,-2.80691 -4.266549,-2.80691 -0.01102,0 -0.3975,-0.2542 -0.858843,-0.56492 -0.461338,-0.31066 -0.981678,-0.6609 -1.156303,-0.77828 -0.174625,-0.11738 -0.536184,-0.37566 -0.803466,-0.57398 -0.267287,-0.19826 -0.501311,-0.36051 -0.520054,-0.36051 -0.05046,0 -3.4426,1.50296 -4.179814,1.85198 -0.34925,0.16532 -0.718343,0.33471 -0.820208,0.3764 -0.101864,0.0417 -1.030552,0.49643 -2.06375,1.01061 -1.571477,0.78199 -2.432722,1.25013 -4.379145,2.38018 -0.09475,0.055 -0.487654,0.31125 -0.873125,0.56937 -0.812948,0.54437 -1.182465,0.75048 -1.34566,0.75048 -0.263091,0 -0.354986,-0.43319 -0.208619,-0.98333 0.209407,-0.78718 0.774208,-1.72872 1.777302,-2.96291 0.07104,-0.0874 0.535162,-0.56449 1.031388,-1.06013 0.965083,-0.96399 1.869747,-1.74386 3.286564,-2.83313 0.512572,-0.3941 2.357998,-1.69079 3.089322,-2.17075 l 0.684493,-0.44918 -0.30336,-0.31888 c -0.973937,-1.02363 -2.180066,-2.88032 -2.684643,-4.13263 -0.479149,-1.18922 -0.677735,-2.13229 -0.649038,-3.0823 0.01721,-0.56964 0.0331,-0.6538 0.177646,-0.94106 0.256561,-0.50978 0.296868,-0.52593 1.419379,-0.56863 0.582168,-0.0221 1.09765,-0.0701 1.305829,-0.12161 0.189178,-0.0468 0.550836,-0.0987 0.803688,-0.11543 0.535967,-0.0354 0.755603,0.0425 1.184365,0.42037 0.204989,0.18057 1.028197,1.33679 1.028197,1.44406 0,0.0584 1.201997,1.85912 1.484683,2.22414 0.402977,0.52037 1.328341,1.61064 1.522201,1.79344 l 0.161745,0.1525 0.307457,-0.17533 c 0.1691,-0.0965 0.402706,-0.22756 0.519123,-0.29128 0.116416,-0.0638 0.616479,-0.33757 1.11125,-0.60846 0.494771,-0.27094 1.280583,-0.69163 1.74625,-0.93486 0.947309,-0.49484 6.285435,-3.16562 6.936389,-3.47041 0.230468,-0.1079 0.669058,-0.31342 0.974651,-0.4567 0.305594,-0.14328 0.746125,-0.34976 0.978959,-0.45882 1.101084,-0.51598 2.849329,-1.2218 3.439583,-1.38876 1.487218,-0.42053 1.889802,-0.28461 2.293869,0.77463 0.190452,0.49923 0.410533,0.8545 0.818054,1.32047 0.385144,0.44039 0.486532,0.65286 0.48413,1.01453 -0.0046,0.69459 -0.724726,1.47971 -2.445211,2.66591 -0.239628,0.16521 -0.446981,0.30039 -0.460782,0.30039 -0.01381,0 -0.210434,0.11563 -0.436954,0.25695 -1.015222,0.63352 -1.810226,1.04636 -4.972167,2.582 -1.121859,0.54485 -6.561602,2.96672 -6.884102,3.06488 -0.107516,0.0327 0.05283,0.20865 1.514697,1.6615 1.692174,1.68173 2.30098,2.35757 3.18146,3.5318 1.022615,1.3637 1.625552,2.48935 1.986074,3.70787 0.170566,0.57647 0.239791,1.57621 0.132371,1.91162 -0.126561,0.39515 -0.348912,0.52175 -0.68198,0.38832 z"
       id="path1225" />
  </g>
</svg>
